HIERARCHY
ROOT Pelvis
{
	OFFSET 0.000000 0.000000 0.000000
	CHANNELS 6 Xposition Yposition Zposition Xrotation Yrotation Zrotation
	JOINT LeftUpLeg_virtual
	{
		OFFSET 0.000000 0.000000 0.000000
		CHANNELS 3 Xrotation Yrotation Zrotation
		JOINT LeftUpLeg
		{
			OFFSET 18.735201 -5.666702 -4.541200
			CHANNELS 3 Xrotation Yrotation Zrotation
			JOINT LeftLeg
			{
				OFFSET -0.021200 -31.938179 0.493100
				CHANNELS 3 Xrotation Yrotation Zrotation
				JOINT LeftFoot
				{
					OFFSET 0.021200 -31.938179 -4.336299
					CHANNELS 3 Xrotation Yrotation Zrotation
					JOINT LeftToeBase
					{
						OFFSET 0.943001 -26.722000 15.023500
						CHANNELS 3 Xrotation Yrotation Zrotation
						End Site
						{
							OFFSET 0 0 0
						}
					}
				}
			}
		}
	}
	JOINT RightUpLeg_virtual
	{
		OFFSET 0.000000 0.000000 0.000000
		CHANNELS 3 Xrotation Yrotation Zrotation
		JOINT RightUpLeg
		{
			OFFSET -18.735201 -5.666702 -4.541200
			CHANNELS 3 Xrotation Yrotation Zrotation
			JOINT RightLeg
			{
				OFFSET 0.018946 -31.938133 0.493100
				CHANNELS 3 Xrotation Yrotation Zrotation
				JOINT RightFoot
				{
					OFFSET -0.018946 -31.938126 -4.336299
					CHANNELS 3 Xrotation Yrotation Zrotation
					JOINT RightToeBase
					{
						OFFSET -0.943001 -26.722004 15.023500
						CHANNELS 3 Xrotation Yrotation Zrotation
						End Site
						{
							OFFSET 0 0 0
						}
					}
				}
			}
		}
	}
	JOINT Hips_virtual
	{
		OFFSET 0.000000 0.000000 0.000000
		CHANNELS 3 Xrotation Yrotation Zrotation
		JOINT Hips
		{
			OFFSET -0.000000 -0.000000 -0.000000
			CHANNELS 3 Xrotation Yrotation Zrotation
			JOINT Spine
			{
				OFFSET 0.000000 10.199997 -0.299500
				CHANNELS 3 Xrotation Yrotation Zrotation
				JOINT Spine1
				{
					OFFSET 0.000000 11.900002 -1.516600
					CHANNELS 3 Xrotation Yrotation Zrotation
					JOINT Spine2
					{
						OFFSET 0.000000 13.600006 -2.842500
						CHANNELS 3 Xrotation Yrotation Zrotation
						JOINT Neck_virtual
						{
							OFFSET 0.000000 0.000000 0.000000
							CHANNELS 3 Xrotation Yrotation Zrotation
							JOINT Neck
							{
								OFFSET 0.000000 9.624100 -2.890100
								CHANNELS 3 Xrotation Yrotation Zrotation
								JOINT Head
								{
									OFFSET 0.000000 14.068802 -1.351900
									CHANNELS 3 Xrotation Yrotation Zrotation
									End Site
									{
										OFFSET 0 0 0
									}
								}
							}
						}
						JOINT LeftShoulder_virtual
						{
							OFFSET 0.000000 0.000000 0.000000
							CHANNELS 3 Xrotation Yrotation Zrotation
							JOINT LeftShoulder
							{
								OFFSET 15.263000 10.923401 -0.547700
								CHANNELS 3 Xrotation Yrotation Zrotation
								JOINT LeftArm
								{
									OFFSET 25.438599 -2.830597 -13.032500
									CHANNELS 3 Xrotation Yrotation Zrotation
									JOINT LeftForeArm
									{
										OFFSET 29.960503 0.000000 0.000000
										CHANNELS 3 Xrotation Yrotation Zrotation
										JOINT LeftHand
										{
											OFFSET 27.849251 0.000000 0.000000
											CHANNELS 3 Xrotation Yrotation Zrotation
											End Site
											{
												OFFSET 0 0 0
											}
										}
									}
								}
							}
						}
						JOINT RightShoulder_virtual
						{
							OFFSET 0.000000 0.000000 0.000000
							CHANNELS 3 Xrotation Yrotation Zrotation
							JOINT RightShoulder
							{
								OFFSET -15.263000 10.923401 -0.547700
								CHANNELS 3 Xrotation Yrotation Zrotation
								JOINT RightArm
								{
									OFFSET -25.438599 -2.830597 -13.032500
									CHANNELS 3 Xrotation Yrotation Zrotation
									JOINT RightForeArm
									{
										OFFSET -29.960503 0.000000 0.000000
										CHANNELS 3 Xrotation Yrotation Zrotation
										JOINT RightHand
										{
											OFFSET -27.849251 0.000000 0.000000
											CHANNELS 3 Xrotation Yrotation Zrotation
											End Site
											{
												OFFSET 0 0 0
											}
										}
									}
								}
							}
						}
					}
				}
			}
		}
	}
}
MOTION
Frames: 4
Frame Time: 0.03333333
2.749403 57.824203 6.622839 0.000000 0.000000 0.000000 -16.249993 -25.748990 0.945783 -67.865163 -1.022113 23.070460 81.357867 -0.603033 0.505841 23.208918 -2.480269 -5.472807 0.000000 0.000000 0.000000 -25.092141 17.526624 1.531344 -64.340095 5.097871 -17.222467 81.191012 -1.751376 -0.610031 23.748523 -1.727366 8.536843 0.000000 0.000000 0.000000 8.912750 7.345482 0.838949 6.098495 -0.835113 3.652937 15.023664 -0.923048 -2.086498 9.781924 -0.847469 -1.989882 0.000000 0.000000 0.000000 10.847849 -0.723166 -1.764903 2.941606 -1.144823 0.772875 0.000000 0.000000 0.000000 12.909055 0.382553 0.622271 3.679186 -11.490861 7.393852 -57.478528 -38.037344 -37.755824 -173.884172 -86.155241 -162.807627 0.000000 0.000000 0.000000 11.190233 0.772825 -1.696253 2.936730 3.371049 -7.627386 -52.975733 47.861905 29.420056 -169.164538 69.996598 160.655188 0.000000 0.000000 0.000000 
2.685347 57.752602 6.595766 0.000000 0.000000 0.000000 -16.194379 -25.836196 0.906680 -67.838422 -1.005449 23.056207 81.311216 -0.591998 0.520113 23.218449 -2.475213 -5.440702 0.000000 0.000000 0.000000 -25.180136 17.535959 1.555305 -64.430411 5.107242 -17.217865 81.155864 -1.802505 -0.592788 23.760568 -1.796008 8.506382 0.000000 0.000000 0.000000 8.933427 7.295258 0.827180 6.557892 -0.874468 3.653493 15.133384 -0.868088 -2.089121 9.813659 -0.821090 -1.973794 0.000000 0.000000 0.000000 11.362589 -0.734572 -1.840709 3.206384 -1.131757 0.727994 0.000000 0.000000 0.000000 12.950145 0.424371 0.623608 3.728417 -11.324041 7.466532 -57.426011 -38.182926 -37.884064 -174.268233 -86.152694 -163.317036 0.000000 0.000000 0.000000 11.304880 0.807180 -1.699543 3.115263 3.507827 -7.662256 -52.180125 47.895325 28.957847 -168.894076 70.664481 160.523939 0.000000 0.000000 0.000000 
2.634109 57.700226 6.577719 0.000000 0.000000 0.000000 -16.131445 -25.851684 0.882945 -67.803903 -0.977402 23.049587 81.262264 -0.585806 0.529134 23.218502 -2.472568 -5.421466 0.000000 0.000000 0.000000 -25.250219 17.574905 1.569213 -64.501206 5.125511 -17.219942 81.118373 -1.844030 -0.576080 23.755343 -1.854146 8.486472 0.000000 0.000000 0.000000 8.974125 7.224395 0.826769 7.023532 -0.864254 3.634872 15.248788 -0.809930 -2.079899 9.846373 -0.796061 -1.949137 0.000000 0.000000 0.000000 11.888445 -0.736184 -1.927462 3.478436 -1.112556 0.673369 0.000000 0.000000 0.000000 12.998927 0.460400 0.631110 3.788763 -11.155387 7.527464 -57.234721 -38.343675 -38.001062 -174.899288 -86.178532 -164.117302 0.000000 0.000000 0.000000 11.438023 0.853021 -1.684929 3.322784 3.718337 -7.629466 -51.217796 47.969003 28.504179 -168.610583 71.447139 160.427661 0.000000 0.000000 0.000000 
2.589021 57.690666 6.562624 0.000000 0.000000 0.000000 -16.076763 -25.785610 0.866616 -67.772532 -0.936345 23.044850 81.207971 -0.587616 0.532702 23.202967 -2.475488 -5.418729 0.000000 0.000000 0.000000 -25.294364 17.653765 1.574916 -64.544229 5.153309 -17.227839 81.077207 -1.876956 -0.559839 23.732174 -1.903026 8.476076 0.000000 0.000000 0.000000 9.024064 7.125035 0.836729 7.484638 -0.789515 3.583907 15.347695 -0.753032 -2.063622 9.865906 -0.773672 -1.918153 0.000000 0.000000 0.000000 12.447291 -0.717219 -2.034825 3.768738 -1.078866 0.603653 0.000000 0.000000 0.000000 13.037772 0.489097 0.640752 3.848371 -10.981991 7.557124 -56.928291 -38.491640 -38.099109 -175.600421 -86.253200 -165.021496 0.000000 0.000000 0.000000 11.565837 0.899995 -1.656936 3.540276 3.970659 -7.549447 -50.165267 48.041300 28.037894 -168.307787 72.321089 160.323869 0.000000 0.000000 0.000000 
